<svg width="308" height="212" viewBox="0 0 308 212" fill="none" xmlns="http://www.w3.org/2000/svg">
<mask id="mask0_480_147" style="mask-type:luminance" maskUnits="userSpaceOnUse" x="-16" y="-17" width="340" height="246">
<path d="M-15.249 -16.1523H323.249V228.152H-15.249V-16.1523ZM246.209 47.5182C236.653 47.8062 226.992 47.3031 217.413 47.8592C216.158 48.1875 215.256 48.8872 214.553 49.7658H179.9C177.3 46.8066 172.568 47.6842 169.083 47.6115C161.26 47.7164 153.397 47.3604 145.604 47.8572C144.387 48.1816 143.472 48.8829 142.767 49.7658H137.765C137.752 49.7452 137.746 49.7225 137.732 49.7019C134.437 46.3928 129.34 47.9198 125.202 47.5781C103.187 47.7343 81.149 47.411 59.1476 47.7599C55.1658 48.5487 53.6944 53.1936 54.3466 56.7643C54.3675 90.3772 54.2646 123.996 54.4665 157.605C55.0121 161.741 59.8563 163.373 63.4837 162.684C87.961 162.667 112.444 162.778 136.918 162.564C138.476 162.349 139.792 161.379 140.666 160.103H142.363C144.23 162.586 147.999 163.138 150.966 162.679C155.945 162.495 161.106 163.169 166.048 162.14C167.127 161.68 167.886 160.96 168.446 160.103H183.775C185.959 163.204 190.521 162.776 193.911 162.664C198.82 162.409 204.12 163.362 208.995 161.968C209.879 161.481 210.518 160.831 211.036 160.103H226.108C227.958 162.546 231.73 163.128 234.672 162.681C239.669 162.484 244.835 163.181 249.793 162.14C253.697 160.471 253.716 155.584 253.421 151.992C253.369 118.794 253.564 85.5811 253.254 52.3928C252.698 49.1999 249.229 47.3806 246.209 47.5182ZM84.9499 72.3259C84.3062 72.3358 83.6654 72.3791 83.0295 72.4851C82.6344 76.1617 82.888 79.9022 82.8506 83.6939C83.0957 86.069 82.562 88.5046 82.9784 90.826C93.1899 91.0544 103.479 91.0014 113.76 90.9853V72.3819C106.097 72.3791 98.4337 72.32 90.7739 72.3574C88.8386 72.5677 86.8808 72.2962 84.9499 72.3259ZM84.9685 115.69C84.3269 115.699 83.6882 115.74 83.0541 115.843C82.5918 120.717 82.9214 125.695 82.8497 130.693C83.0718 133.053 82.5878 135.461 82.9666 137.774C93.1963 137.98 103.476 137.974 113.76 137.952V115.734C106.098 115.749 98.4333 115.684 90.7739 115.722C88.8449 115.93 86.8934 115.663 84.9685 115.69Z" fill="white"/>
</mask>
<g mask="url(#mask0_480_147)">
<path d="M153.891 0.969007C153.891 210.968 153.891 210.968 153.891 210.968M2.50442 105.521C305.826 105.521 305.826 105.521 305.826 105.521M22.2544 158.22C285.527 158.22 285.527 158.22 285.527 158.22M22.2544 52.9289C285.527 52.9289 285.527 52.9289 285.527 52.9289M242.214 106.026C242.214 133.812 232.92 160.46 216.377 180.108C199.834 199.755 177.397 210.793 154.001 210.793C142.417 210.793 130.946 208.084 120.244 202.818C109.541 197.553 99.8165 189.836 91.6252 180.108C83.4338 170.379 76.9361 158.83 72.503 146.119C68.0699 133.408 65.7882 119.784 65.7882 106.026C65.7882 78.24 75.082 51.592 91.6252 31.9443C108.168 12.2966 130.606 1.25867 154.001 1.25867C177.397 1.25867 199.834 12.2966 216.377 31.9443C232.92 51.592 242.214 78.24 242.214 106.026ZM306.307 106C306.307 133.903 290.261 160.663 261.698 180.394C233.135 200.124 194.395 211.209 154.001 211.209C113.607 211.209 74.8675 200.124 46.3047 180.394C17.7418 160.663 1.69531 133.903 1.69531 106C1.69531 92.1837 5.63482 78.5027 13.2889 65.7382C20.943 52.9737 32.1618 41.3755 46.3047 31.606C60.4476 21.8364 77.2376 14.0868 95.7162 8.79957C114.195 3.51233 134 0.791015 154.001 0.791016C194.395 0.791019 233.135 11.8755 261.698 31.606C290.261 51.3365 306.307 78.0968 306.307 106Z" stroke="white" stroke-width="1.58232"/>
</g>
<path d="M82.9236 112.698C81.2029 112.698 79.8081 114.093 79.8081 115.814V137.847C79.8081 139.567 81.203 140.962 82.9237 140.962H135.764C137.484 140.962 138.879 142.357 138.879 144.078V156.54C138.879 158.261 137.484 159.656 135.764 159.656H60.4915C58.7709 159.656 57.376 158.261 57.376 156.54V53.7513C57.376 52.0306 58.7709 50.6357 60.4915 50.6357H133.072C134.792 50.6357 136.187 52.0306 136.187 53.7513V66.2136C136.187 67.9343 134.792 69.3291 133.072 69.3291H82.9236C81.2029 69.3291 79.8081 70.724 79.8081 72.4447V90.889C79.8081 92.6095 81.203 94.0044 82.9237 94.0044H128.884C130.605 94.0044 132 95.3993 132 97.1201V109.582C132 111.303 130.605 112.698 128.884 112.698H82.9236ZM172.795 101.385C171.962 97.7717 166.644 98.3767 166.644 102.085V156.54C166.644 158.261 165.249 159.656 163.528 159.656H147.327C145.607 159.656 144.212 158.261 144.212 156.54V53.7513C144.212 52.0306 145.607 50.6357 147.327 50.6357H175.224C176.679 50.6357 177.94 51.6419 178.262 53.0599L194.366 123.819C195.104 127.062 199.73 127.047 200.446 123.799L216.053 53.0799C216.369 51.6523 217.634 50.6357 219.096 50.6357H247.275C248.996 50.6357 250.391 52.0306 250.391 53.7513V156.54C250.391 158.261 248.996 159.656 247.275 159.656H231.074C229.353 159.656 227.958 158.261 227.958 156.54V102.498C227.958 98.7841 222.627 98.1865 221.805 101.808L209.218 157.23C208.896 158.649 207.634 159.656 206.179 159.656H188.714C187.262 159.656 186.004 158.654 185.678 157.24L172.795 101.385Z" fill="white"/>
</svg>
